<?xml version="1.0" encoding="UTF-8" standalone="no"?>
<!-- Created with Inkscape (http://www.inkscape.org/) -->

<svg
   xmlns:dc="http://purl.org/dc/elements/1.1/"
   xmlns:cc="http://creativecommons.org/ns#"
   xmlns:rdf="http://www.w3.org/1999/02/22-rdf-syntax-ns#"
   xmlns:svg="http://www.w3.org/2000/svg"
   xmlns="http://www.w3.org/2000/svg"
   xmlns:sodipodi="http://sodipodi.sourceforge.net/DTD/sodipodi-0.dtd"
   xmlns:inkscape="http://www.inkscape.org/namespaces/inkscape"
   width="252"
   height="131"
   id="svg4631"
   version="1.1"
   inkscape:version="0.48.3.1 r9886"
   sodipodi:docname="logo.svg"
   inkscape:export-filename="/home/francisco/Clientes/com.google.code/droidminder/arts/logo.png"
   inkscape:export-xdpi="90"
   inkscape:export-ydpi="90">
  <defs
     id="defs4633" />
  <sodipodi:namedview
     id="base"
     pagecolor="#ffffff"
     bordercolor="#666666"
     borderopacity="1.0"
     inkscape:pageopacity="0.0"
     inkscape:pageshadow="2"
     inkscape:zoom="1.7762115"
     inkscape:cx="204.28571"
     inkscape:cy="55.714286"
     inkscape:document-units="px"
     inkscape:current-layer="layer1"
     showgrid="false"
     inkscape:window-width="1317"
     inkscape:window-height="744"
     inkscape:window-x="49"
     inkscape:window-y="24"
     inkscape:window-maximized="1" />
  <metadata
     id="metadata4636">
    <rdf:RDF>
      <cc:Work
         rdf:about="">
        <dc:format>image/svg+xml</dc:format>
        <dc:type
           rdf:resource="http://purl.org/dc/dcmitype/StillImage" />
        <dc:title></dc:title>
      </cc:Work>
    </rdf:RDF>
  </metadata>
  <g
     inkscape:label="Camada 1"
     inkscape:groupmode="layer"
     id="layer1"
     transform="translate(0,-921.36218)">
    <path
       id="path4418"
       style="color:#000000;fill:#096a99;fill-opacity:1;fill-rule:nonzero;stroke:none;marker:none;visibility:visible;display:inline;overflow:visible;enable-background:accumulate"
       d="m 220.39086,949.34276 c 0,2.52298 2.04533,4.56828 4.56841,4.56828 2.52305,0 4.56845,-2.0453 4.56845,-4.56828 0,-2.52312 -2.0454,-4.56842 -4.56845,-4.56842 -2.52308,0 -4.56841,2.0453 -4.56841,4.56842 z m 12.91073,-2.38354 c 0,4.05874 3.29036,7.34919 7.34919,7.34919 4.05883,0 7.34919,-3.29045 7.34919,-7.34919 0,-4.05889 -3.29036,-7.34919 -7.34919,-7.34919 -4.05883,0 -7.34919,3.2903 -7.34919,7.34919 z m -12.21547,23.53722 c 0,7.0755 5.73583,12.81139 12.8114,12.81139 7.07556,0 12.81139,-5.73589 12.81139,-12.81139 0,-7.07553 -5.73583,-12.8114 -12.81139,-12.8114 -7.07557,0 -12.8114,5.73587 -12.8114,12.8114 z M 31.609084,949.34276 c 0,2.52298 -2.045366,4.56828 -4.568416,4.56828 -2.52305,0 -4.568415,-2.0453 -4.568415,-4.56828 0,-2.52312 2.045365,-4.56842 4.568415,-4.56842 2.52305,0 4.568416,2.0453 4.568416,4.56842 z m -12.910768,-2.38354 c 0,4.05874 -3.290295,7.34919 -7.349156,7.34919 -4.0588291,0 -7.3491891,-3.29045 -7.3491891,-7.34919 0,-4.05889 3.29036,-7.34919 7.3491891,-7.34919 4.058861,0 7.349156,3.2903 7.349156,7.34919 z m 12.215534,23.53722 c 0,7.0755 -5.73583,12.81139 -12.811393,12.81139 -7.075563,0 -12.8113931,-5.73589 -12.8113931,-12.81139 0,-7.07553 5.7358301,-12.8114 12.8113931,-12.8114 7.075563,0 12.811393,5.73587 12.811393,12.8114 z m 97.98695,12.64957 c -6.42768,-1.27948 -10.98895,-5.90503 -12.35772,-12.53178 -1.90044,-9.20067 1.50098,-17.75915 8.32761,-20.95375 7.09623,-3.32074 17.15798,-2.18655 22.03182,2.48333 3.20425,3.0703 4.63232,6.57531 4.92622,12.09089 0.65442,12.28079 -5.9696,19.46895 -17.84767,19.36781 -1.60081,-0.0151 -3.88696,-0.21893 -5.08026,-0.4565 z m 8.41707,-8.43211 c 2.08872,-1.04083 3.09895,-2.64238 3.63938,-5.7694 0.49329,-2.85485 0.20512,-7.17246 -0.60018,-8.99307 -2.51796,-5.69214 -10.85767,-5.36662 -12.90549,0.50383 -0.80967,2.32095 -0.81633,8.13028 -0.0119,10.43372 1.41812,4.06098 5.9124,5.8013 9.87833,3.82492 z m -101.518231,7.89702 c -0.08968,-0.23525 -0.125675,-10.61453 -0.07954,-23.06532 l 0.0836,-22.63755 13.097541,0 c 10.126002,0 13.501057,0.10284 14.876169,0.45027 7.338115,1.85802 11.927069,6.84237 13.811381,15.00127 0.76261,3.30195 0.755496,12.7737 -0.01223,15.87757 -1.763917,7.13402 -6.973356,12.3584 -13.961166,14.00179 -3.092771,0.72714 -27.555322,1.05433 -27.816038,0.37197 z m 21.86237,-10.61997 c 4.828166,-0.91571 6.769554,-5.02569 6.336936,-13.41559 -0.233096,-4.52142 -0.860503,-6.60818 -2.531806,-8.42122 -1.794725,-1.9469 -3.689725,-2.55158 -8.038403,-2.56426 l -3.395657,-0.0151 -0.08495,11.96435 c -0.04661,6.58033 -0.01513,12.14684 0.07072,12.36986 0.19421,0.50607 5.118467,0.55536 7.643159,0.0756 z m 24.632971,10.60471 c -0.08695,-0.22681 -0.119912,-7.97984 -0.07381,-17.22892 l 0.08421,-16.81656 10.348669,-0.0907 c 10.710751,-0.0937 13.783471,0.13154 16.155451,1.18165 2.83083,1.25223 4.66103,4.07988 4.94704,7.64299 0.34188,4.25858 -1.63489,7.61873 -5.64302,9.59208 -1.86094,0.916 -2.05376,1.09199 -1.5191,1.38609 1.67375,0.92099 4.0343,3.99322 6.83928,8.90126 1.6461,2.88031 2.91092,5.36956 2.81061,5.53209 -0.21565,0.34863 -11.14424,0.39325 -11.64517,0.0468 -0.18915,-0.13002 -1.55032,-2.34771 -3.02488,-4.92677 -1.47451,-2.57923 -3.138863,-5.38086 -3.69854,-6.22575 -1.107377,-1.67217 -2.640129,-2.60459 -4.019973,-2.44557 l -0.878305,0.10282 -0.161729,6.79109 -0.161664,6.79129 -5.10044,0.0892 c -3.902572,0.0665 -5.137588,-0.0151 -5.258434,-0.32372 z m 17.611778,-20.32627 c 2.241282,-0.48071 3.397332,-1.83048 3.149592,-3.67758 -0.33418,-2.49151 -2.09391,-3.21835 -7.330296,-3.0272 l -2.74884,0.10127 -0.09387,3.048 c -0.05154,1.67632 -0.01996,3.24068 0.07076,3.47655 0.206281,0.53753 4.584511,0.58771 6.952561,0.0786 z m 56.634282,20.32627 c -0.0869,-0.22681 -0.12004,-7.97984 -0.0738,-17.22892 l 0.0842,-16.81656 5.17432,0 5.17432,0 0,17.13998 0,17.13986 -5.10041,0.0892 c -3.90257,0.0665 -5.13758,-0.0151 -5.25846,-0.32375 z m 17.40212,0.0151 c -0.0897,-0.23515 -0.1258,-10.61456 -0.0797,-23.06516 l 0.0836,-22.63772 13.09751,0 c 10.12606,0 13.50108,0.10284 14.8762,0.45045 7.33814,1.85782 11.9271,6.84221 13.81135,15.00107 0.76264,3.30211 0.75552,12.77402 -0.0119,15.87776 -1.76394,7.13403 -6.97335,12.35837 -13.96116,14.0018 -3.09277,0.72713 -27.55536,1.05432 -27.81607,0.3718 z m 21.8624,-10.61984 c 4.82814,-0.91584 6.76952,-5.02569 6.33694,-13.41543 -0.23313,-4.52158 -0.86054,-6.60831 -2.53187,-8.42138 -1.79473,-1.94706 -3.6897,-2.55154 -8.03837,-2.56439 l -3.39566,-0.0151 -0.085,11.96435 c -0.0465,6.58046 -0.0151,12.1468 0.0709,12.36982 0.19421,0.50612 5.11847,0.55543 7.64316,0.0756 z M 4.0943559,1036.4185 c -0.08663,-0.2267 -0.119591,-10.599 -0.07362,-23.0496 l 0.08363,-22.63787 9.2831081,-0.0846 9.283172,-0.0847 0.359737,1.21764 c 0.197815,0.66983 1.768746,6.6638 3.490943,13.31993 1.722166,6.6562 3.283375,12.1521 3.469279,12.213 0.197236,0.063 1.734784,-5.3127 3.691591,-12.9107 1.84446,-7.16186 3.49471,-13.20586 3.667255,-13.43088 0.24269,-0.31644 2.372267,-0.38964 9.405918,-0.32339 l 9.092214,0.0846 0,22.96117 0,22.9609 -5.659408,0 -5.659408,0 -0.08379,-16.4122 c -0.05395,-10.5683 -0.197911,-16.4124 -0.404225,-16.4124 -0.176214,0 -0.320431,0.048 -0.320431,0.1104 0,0.3784 -8.152488,31.5602 -8.40535,32.1493 -0.304722,0.7094 -0.436191,0.7274 -5.292428,0.7274 -3.604836,0 -5.064611,-0.1104 -5.286602,-0.4042 -0.168649,-0.2223 -2.080904,-7.3168 -4.249497,-15.7654 -2.16856,-8.4486 -4.030017,-15.6889 -4.13657,-16.0889 -0.106585,-0.4002 -0.320818,-0.7278 -0.476301,-0.7278 -0.156514,0 -0.320142,7.325 -0.366561,16.4124 l -0.08389,16.4121 -5.5857861,0.089 c -4.291604,0.067 -5.622227,-0.015 -5.743137,-0.3235 z m 59.7605661,2e-4 c -0.08679,-0.2267 -0.119913,-8.5617 -0.07381,-18.5222 l 0.08379,-18.11021 5.497711,0 5.497712,0 0,18.43351 0,18.4334 -5.424026,0.089 c -4.161776,0.066 -5.460692,-0.015 -5.581666,-0.3235 z m 18.042851,3e-4 c -0.08679,-0.2269 -0.119913,-8.562 -0.07381,-18.5225 l 0.08376,-18.11021 5.223056,-0.0877 5.223056,-0.0892 6.680641,9.87161 c 3.674364,5.4292 6.815494,9.8713 6.980374,9.8713 0.17557,0 0.33524,-4.0528 0.38536,-9.7828 l 0.0857,-9.78261 5.17435,0 5.17432,0 0,18.43351 0,18.4334 -5.31052,0 -5.31052,0 -6.493448,-9.5653 c -3.571293,-5.2608 -6.63889,-9.5904 -6.816811,-9.6214 -0.206571,-0.036 -0.381755,3.4175 -0.485057,9.5654 l -0.161696,9.6213 -5.10044,0.088 c -3.902573,0.066 -5.137524,-0.015 -5.258305,-0.3236 z m 41.323987,-0.015 c -0.0851,-0.2225 -0.11689,-8.5537 -0.0708,-18.5145 l 0.0838,-18.11007 9.37845,-0.0907 c 5.3852,-0.0499 10.34236,0.0544 11.64224,0.24932 4.57427,0.68375 8.5391,3.52605 10.47837,7.51145 1.42169,2.9218 1.98629,5.4037 2.1909,9.6306 0.34847,7.1987 -1.13371,11.8746 -4.91515,15.5057 -3.8013,3.65 -6.43225,4.2213 -19.44226,4.2213 -7.05483,0 -9.22713,-0.094 -9.34585,-0.4042 z m 19.04261,-9.1334 c 2.55315,-1.2115 3.69194,-4.7599 3.35271,-10.4463 -0.2478,-4.154 -1.29376,-6.3252 -3.61169,-7.4972 -1.35795,-0.6868 -2.05122,-0.8114 -4.52753,-0.8134 l -2.92403,0 -0.0859,9.3746 c -0.0472,5.1559 -0.007,9.5773 0.0873,9.8253 0.2592,0.6757 6.05516,0.3443 7.70925,-0.4406 z m 21.05959,9.1364 c -0.0857,-0.2241 -0.11795,-8.5567 -0.0719,-18.5175 l 0.0839,-18.11007 15.19959,0 15.19957,0 0,3.71917 0,3.7189 -9.54016,0.1615 -9.54015,0.162 0,2.7486 0,2.749 8.89333,0.1617 8.8934,0.1618 0,3.5574 0,3.5573 -8.8934,0.1617 -8.89333,0.1615 0,3.5574 0,3.5575 9.86351,0.1616 9.86361,0.1618 0,4.204 0,4.2042 -15.45107,0.083 c -12.18827,0.065 -15.48404,0 -15.60697,-0.3233 z m 39.45576,0 c -0.0863,-0.2257 -0.11914,-10.5976 -0.0731,-23.0482 l 0.0838,-22.63788 14.87617,0 c 16.07423,0 17.54816,0.12095 20.80891,1.7155 2.18292,1.06708 4.33113,3.43896 5.27076,5.81921 0.58566,1.48372 0.73116,2.50717 0.74475,5.23957 0.0151,3.0209 -0.078,3.5982 -0.84319,5.2309 -1.53101,3.2667 -4.31906,5.736 -7.82581,6.9309 -0.82532,0.2811 -1.50056,0.6404 -1.50056,0.7976 0,0.1577 0.5656,0.5752 1.25694,0.9278 0.69124,0.3527 1.9766,1.449 2.85626,2.4357 1.89055,2.1213 9.98066,16.2815 9.54871,16.7133 -0.15693,0.157 -3.75198,0.2464 -7.98902,0.1984 l -7.70364,-0.086 -4.43563,-7.8969 c -2.43955,-4.3433 -4.891,-8.3754 -5.44775,-8.9605 -1.05986,-1.1138 -3.03975,-1.8477 -4.52286,-1.6762 l -0.86466,0.1012 -0.16166,9.2169 -0.16173,9.217 -6.87984,0.086 c -5.32804,0.067 -6.91516,-0.015 -7.03668,-0.3232 z m 23.44492,-27.5929 c 1.14962,-0.2711 2.36513,-0.7415 2.70107,-1.0456 2.25081,-2.037 1.82576,-5.6554 -0.83282,-7.0888 -0.86668,-0.4675 -1.91499,-0.5664 -6.0606,-0.5726 l -5.01262,-0.015 -0.091,4.1871 c -0.0499,2.3028 -0.018,4.3767 0.0708,4.6083 0.23233,0.6054 6.54815,0.5504 9.2252,-0.08 z"
       inkscape:connector-curvature="0" />
  </g>
</svg>
